# xmcd CD database file
#
# Track frame offsets:
#	150
#	17552
#	42192
#	68043
#	89955
#	103710
#	125254
#	145466
#	159080
#	181498
#	197742
#	227288
#	241084
#
# Disc length: 3444 seconds
#
# Revision: 0
# Processed by: cddbd v1.5.2PL0 Copyright (c) Steve Scherf et al.
# Submitted via: CDex 1.51
#
DISCID=a50d720d
DTITLE=Brass Attack - Brecht Songs
DYEAR=1998
DGENRE=Jazz
TTITLE0=Die Moritat Von Mackie Messer
TTITLE1=Das Lied Vom Surabaya-Johnny
TTITLE2=Ballade Uber Die Frage Wovon Lebt Der Mensch
TTITLE3=Morgenchoral Des Peachum
TTITLE4=Anstatt-Dass-Song
TTITLE5=Ballade von der Sexuellen Hörigkeit
TTITLE6=Die Zuhälterballade
TTITLE7=Ruf aus der Gruft
TTITLE8=Grabschrift
TTITLE9=Alabama Song
TTITLE10=Lied Vom Achten Elefanten
TTITLE11=Anstatt-Dass-Song 2
TTITLE12=Die Moritat Von Mackie Messer 2
EXTD=YEAR: 1998
EXTT0=
EXTT1=
EXTT2=
EXTT3=
EXTT4=
EXTT5=
EXTT6=
EXTT7=
EXTT8=
EXTT9=
EXTT10=
EXTT11=
EXTT12=
PLAYORDER=
